<svg version="1.1" id="Layer_1" xmlns="http://www.w3.org/2000/svg" xmlns:xlink="http://www.w3.org/1999/xlink" x="0px" y="0px"
	 width="100%" viewBox="0 0 1974 1688" enable-background="new 0 0 1974 1688" xml:space="preserve">
<path fill="#FFFFFF" opacity="1.000000" stroke="none" 
	d="
M999.000000,1689.000000 
	C666.383118,1689.000000 333.766296,1689.000000 1.000000,1689.000000 
	C1.000000,1127.300659 1.000000,565.601196 1.337476,3.559325 
	C3.669589,6.550448 5.699710,9.863412 7.653109,13.221012 
	C20.533535,35.360542 33.312103,57.559841 46.290039,79.641998 
	C60.093639,103.129044 74.183655,126.447899 87.960854,149.950272 
	C103.455040,176.381622 118.804314,202.898697 134.055695,229.470856 
	C136.831161,234.306488 139.998749,236.186417 145.982498,236.183853 
	C615.278076,235.983429 1084.573730,235.999908 1553.869385,235.999908 
	C1555.749756,235.999908 1557.630127,235.999878 1559.872192,235.999878 
	C1479.782837,374.411621 1400.061646,512.187317 1320.462769,649.751587 
	C1292.257446,649.751587 1264.318481,649.751587 1236.277344,649.751587 
	C1236.277344,599.776306 1236.277344,550.049927 1236.277344,499.999939 
	C1238.348267,499.999939 1240.153809,499.999939 1241.959351,499.999939 
	C1283.789307,499.999939 1325.619263,500.020905 1367.448975,499.921509 
	C1369.085815,499.917603 1371.542847,499.243286 1372.229004,498.069489 
	C1379.673096,485.337097 1386.841553,472.443420 1394.080688,459.591309 
	C1401.884155,445.737579 1409.645386,431.859985 1417.492432,418.031128 
	C1428.296753,398.991180 1439.201416,380.008240 1449.992310,360.960754 
	C1457.907593,346.989166 1465.654053,332.921967 1473.575317,318.953949 
	C1484.027222,300.523438 1494.576538,282.148193 1505.335571,263.308685 
	C1336.916504,263.308685 1169.089233,263.308685 1001.000000,263.308685 
	C1001.000000,265.089020 1001.002991,266.568512 1000.999573,268.047974 
	C1000.666687,412.297394 1000.307312,556.546753 1000.006714,700.796265 
	C999.645081,874.376587 999.217163,1047.956909 999.034485,1221.537476 
	C998.870544,1377.358154 999.000000,1533.179199 999.000000,1689.000000 
M975.000000,926.500000 
	C975.000000,705.425842 975.000000,484.351685 975.000000,263.176453 
	C701.767273,263.176453 429.210724,263.176453 156.081314,263.176453 
	C163.585114,277.204865 170.803452,290.907745 178.213287,304.506287 
	C191.105499,328.166046 204.153915,351.740662 217.063690,375.390900 
	C226.143341,392.024445 235.040771,408.757538 244.128708,425.386566 
	C257.366882,449.609619 270.799103,473.727417 283.892914,498.027832 
	C285.828308,501.619629 287.644928,503.122070 291.948242,503.117828 
	C436.435303,502.975708 580.922546,502.999908 725.409790,502.999939 
	C727.508057,502.999939 729.606262,502.999969 731.999451,502.999969 
	C731.999451,504.621582 731.992126,505.596985 732.000488,506.572266 
	C732.332825,545.169678 732.816284,583.766541 732.971191,622.364685 
	C733.388855,726.455994 733.775024,830.547668 733.966675,934.639587 
	C734.128418,1022.464844 733.925903,1110.290771 734.045837,1198.116089 
	C734.080994,1223.881836 734.649353,1249.646851 735.042297,1275.411255 
	C735.066467,1276.993408 735.336182,1278.775024 736.105469,1280.109985 
	C741.074951,1288.732788 746.252136,1297.235352 751.291199,1305.818481 
	C759.800049,1320.311890 768.292297,1334.815430 776.726440,1349.352417 
	C786.714661,1366.568115 796.575439,1383.857910 806.598816,1401.053101 
	C817.442078,1419.654663 828.468018,1438.149780 839.306824,1456.753906 
	C851.709412,1478.041992 863.937927,1499.431519 876.345459,1520.716675 
	C888.669556,1541.859009 901.125854,1562.924194 913.517334,1584.027222 
	C922.521057,1599.360596 931.552002,1614.678345 940.500305,1630.044189 
	C949.203979,1644.989624 957.798645,1659.998535 966.483459,1674.955078 
	C968.855347,1679.039795 971.379578,1683.036011 973.833862,1687.072754 
	C974.222534,1686.941528 974.611267,1686.810303 975.000000,1686.678955 
	C975.000000,1433.619385 975.000000,1180.559692 975.000000,926.500000 
z"/>
<path fill="#FFFFFF" opacity="1.000000" stroke="none" 
	d="
M1975.000000,1.999996 
	C1975.000000,564.248535 1975.000000,1126.497070 1975.000000,1689.000000 
	C1650.300659,1689.000000 1325.601196,1689.000000 1000.455322,1688.630615 
	C1003.842651,1681.505005 1007.674316,1674.747437 1011.510498,1667.992310 
	C1021.119568,1651.072144 1030.682007,1634.125244 1040.354492,1617.241089 
	C1050.349609,1599.793579 1060.510254,1582.440674 1070.490845,1564.984741 
	C1079.183716,1549.781006 1087.639771,1534.441650 1096.356323,1519.251831 
	C1108.705566,1497.732056 1121.268799,1476.335205 1133.606934,1454.809204 
	C1143.605103,1437.365723 1153.324585,1419.762573 1163.316406,1402.315308 
	C1174.275879,1383.178589 1185.429810,1364.153076 1196.454468,1345.053345 
	C1206.913330,1326.933716 1217.419434,1308.839722 1227.668335,1290.601562 
	C1230.243896,1286.018188 1233.648193,1280.954956 1233.730469,1276.062866 
	C1234.515625,1229.481323 1234.701660,1182.889526 1234.982300,1136.300049 
	C1235.090698,1118.302612 1234.927490,1100.303833 1235.013184,1082.306274 
	C1235.312622,1019.385437 1235.665405,956.464966 1236.011719,893.544434 
	C1236.017822,892.439331 1236.197510,891.335083 1236.316772,890.000000 
	C1238.426514,890.000000 1240.237305,890.000000 1242.048218,890.000000 
	C1313.040161,890.000000 1384.032227,889.977966 1455.024048,890.059753 
	C1458.920776,890.064209 1461.831299,889.899353 1463.438354,885.387207 
	C1464.772095,881.642212 1467.530029,878.417358 1469.555420,874.903503 
	C1477.652588,860.855713 1485.678955,846.767273 1493.789673,832.727356 
	C1504.170166,814.758301 1514.598511,796.816833 1525.021362,778.872375 
	C1533.084595,764.990601 1541.185913,751.131165 1549.243530,737.246155 
	C1559.499634,719.573120 1569.753418,701.898682 1579.961670,684.197998 
	C1587.898926,670.434753 1595.726196,656.608093 1603.672607,642.850220 
	C1612.753296,627.128784 1621.928345,611.461975 1631.031494,595.753418 
	C1638.919434,582.141602 1646.744629,568.493286 1654.632812,554.881653 
	C1664.064087,538.607605 1673.559082,522.370483 1682.978027,506.089264 
	C1690.934570,492.335724 1698.790649,478.524109 1706.747192,464.770630 
	C1717.139282,446.807465 1727.585693,428.875732 1738.010132,410.931305 
	C1746.073853,397.050873 1754.150513,383.177979 1762.201782,369.290314 
	C1771.147095,353.860199 1780.077881,338.421570 1789.000732,322.978424 
	C1796.950562,309.219269 1804.878052,295.447296 1812.820312,281.683746 
	C1822.219482,265.395264 1831.601196,249.096649 1841.032837,232.826996 
	C1849.084473,218.937820 1857.218506,205.096268 1865.275757,191.210312 
	C1875.530518,173.537186 1885.763672,155.851425 1895.970581,138.150604 
	C1903.907471,124.386574 1911.749268,110.567581 1919.706421,96.815353 
	C1930.100098,78.852295 1940.551636,60.922642 1951.005737,42.994621 
	C1958.981567,29.316811 1967.000366,15.663951 1975.000000,1.999996 
z"/>
<path fill="#AF3817" opacity="1.000000" stroke="none" 
	d="
M1975.000000,1.499996 
	C1967.000366,15.663951 1958.981567,29.316811 1951.005737,42.994621 
	C1940.551636,60.922642 1930.100098,78.852295 1919.706421,96.815353 
	C1911.749268,110.567581 1903.907471,124.386574 1895.970581,138.150604 
	C1885.763672,155.851425 1875.530518,173.537186 1865.275757,191.210312 
	C1857.218506,205.096268 1849.084473,218.937820 1841.032837,232.826996 
	C1831.601196,249.096649 1822.219482,265.395264 1812.820312,281.683746 
	C1804.878052,295.447296 1796.950562,309.219269 1789.000732,322.978424 
	C1780.077881,338.421570 1771.147095,353.860199 1762.201782,369.290314 
	C1754.150513,383.177979 1746.073853,397.050873 1738.010132,410.931305 
	C1727.585693,428.875732 1717.139282,446.807465 1706.747192,464.770630 
	C1698.790649,478.524109 1690.934570,492.335724 1682.978027,506.089264 
	C1673.559082,522.370483 1664.064087,538.607605 1654.632812,554.881653 
	C1646.744629,568.493286 1638.919434,582.141602 1631.031494,595.753418 
	C1621.928345,611.461975 1612.753296,627.128784 1603.672607,642.850220 
	C1595.726196,656.608093 1587.898926,670.434753 1579.961670,684.197998 
	C1569.753418,701.898682 1559.499634,719.573120 1549.243530,737.246155 
	C1541.185913,751.131165 1533.084595,764.990601 1525.021362,778.872375 
	C1514.598511,796.816833 1504.170166,814.758301 1493.789673,832.727356 
	C1485.678955,846.767273 1477.652588,860.855713 1469.555420,874.903503 
	C1467.530029,878.417358 1464.772095,881.642212 1463.438354,885.387207 
	C1461.831299,889.899353 1458.920776,890.064209 1455.024048,890.059753 
	C1384.032227,889.977966 1313.040161,890.000000 1242.048218,890.000000 
	C1240.237305,890.000000 1238.426514,890.000000 1236.316772,890.000000 
	C1236.197510,891.335083 1236.017822,892.439331 1236.011719,893.544434 
	C1235.665405,956.464966 1235.312622,1019.385437 1235.013184,1082.306274 
	C1234.927490,1100.303833 1235.090698,1118.302612 1234.982300,1136.300049 
	C1234.701660,1182.889526 1234.515625,1229.481323 1233.730469,1276.062866 
	C1233.648193,1280.954956 1230.243896,1286.018188 1227.668335,1290.601562 
	C1217.419434,1308.839722 1206.913330,1326.933716 1196.454468,1345.053345 
	C1185.429810,1364.153076 1174.275879,1383.178589 1163.316406,1402.315308 
	C1153.324585,1419.762573 1143.605103,1437.365723 1133.606934,1454.809204 
	C1121.268799,1476.335205 1108.705566,1497.732056 1096.356323,1519.251831 
	C1087.639771,1534.441650 1079.183716,1549.781006 1070.490845,1564.984741 
	C1060.510254,1582.440674 1050.349609,1599.793579 1040.354492,1617.241089 
	C1030.682007,1634.125244 1021.119568,1651.072144 1011.510498,1667.992310 
	C1007.674316,1674.747437 1003.842651,1681.505005 1000.004395,1688.630615 
	C1000.000000,1689.000000 999.500000,1689.000000 999.250000,1689.000000 
	C999.000000,1533.179199 998.870544,1377.358154 999.034485,1221.537476 
	C999.217163,1047.956909 999.645081,874.376587 1000.006714,700.796265 
	C1000.307312,556.546753 1000.666687,412.297394 1000.999573,268.047974 
	C1001.002991,266.568512 1001.000000,265.089020 1001.000000,263.308685 
	C1169.089233,263.308685 1336.916504,263.308685 1505.335571,263.308685 
	C1494.576538,282.148193 1484.027222,300.523438 1473.575317,318.953949 
	C1465.654053,332.921967 1457.907593,346.989166 1449.992310,360.960754 
	C1439.201416,380.008240 1428.296753,398.991180 1417.492432,418.031128 
	C1409.645386,431.859985 1401.884155,445.737579 1394.080688,459.591309 
	C1386.841553,472.443420 1379.673096,485.337097 1372.229004,498.069489 
	C1371.542847,499.243286 1369.085815,499.917603 1367.448975,499.921509 
	C1325.619263,500.020905 1283.789307,499.999939 1241.959351,499.999939 
	C1240.153809,499.999939 1238.348267,499.999939 1236.277344,499.999939 
	C1236.277344,550.049927 1236.277344,599.776306 1236.277344,649.751587 
	C1264.318481,649.751587 1292.257446,649.751587 1320.462769,649.751587 
	C1400.061646,512.187317 1479.782837,374.411621 1559.872192,235.999878 
	C1557.630127,235.999878 1555.749756,235.999908 1553.869385,235.999908 
	C1084.573730,235.999908 615.278076,235.983429 145.982498,236.183853 
	C139.998749,236.186417 136.831161,234.306488 134.055695,229.470856 
	C118.804314,202.898697 103.455040,176.381622 87.960854,149.950272 
	C74.183655,126.447899 60.093639,103.129044 46.290039,79.641998 
	C33.312103,57.559841 20.533535,35.360542 7.653109,13.221012 
	C5.699710,9.863412 3.669589,6.550448 1.337476,3.108420 
	C1.333333,2.333333 1.548027,1.216341 2.023962,1.090954 
	C3.114909,0.803541 4.333333,1.000000 5.500000,1.000000 
	C662.000000,1.000000 1318.500000,1.000000 1975.000000,1.499996 
M836.500000,22.286945 
	C570.498291,22.286945 304.496521,22.286945 37.816093,22.286945 
	C38.860229,24.147690 39.331356,25.020569 39.832603,25.875790 
	C75.866501,87.355980 111.935127,148.815887 147.857941,210.360916 
	C149.997391,214.026337 152.358536,215.103455 156.525238,215.102509 
	C634.008911,214.993439 1111.492554,214.999756 1588.976318,214.999756 
	C1591.218506,214.999756 1593.460815,214.999771 1596.347290,214.999771 
	C1595.360596,216.964386 1594.841431,218.145370 1594.199341,219.255295 
	C1563.099243,273.011566 1531.984253,326.759277 1500.880005,380.513092 
	C1445.591553,476.061462 1390.289062,571.601746 1335.111328,667.213928 
	C1333.300415,670.351746 1331.267212,671.067322 1327.975830,671.058716 
	C1292.143921,670.964844 1256.311768,671.000000 1220.479614,671.000000 
	C1218.733154,671.000000 1216.986572,671.000000 1215.325439,671.000000 
	C1215.325439,606.592041 1215.325439,543.004578 1215.325439,478.999939 
	C1217.613647,478.999939 1219.580566,478.999939 1221.547607,478.999939 
	C1265.546143,478.999939 1309.544678,478.949738 1353.542847,479.088470 
	C1357.350708,479.100464 1359.368530,478.027039 1361.291504,474.610626 
	C1391.835327,420.346710 1422.559570,366.184357 1453.231812,311.992706 
	C1458.373047,302.909363 1463.463867,293.797424 1468.738281,284.413208 
	C1319.653076,284.413208 1171.155762,284.413208 1022.416321,284.413208 
	C1021.569336,725.963928 1020.723083,1167.101929 1019.876892,1608.239868 
	C1021.353882,1607.615601 1021.914673,1606.856934 1022.380615,1606.043823 
	C1040.673584,1574.119751 1058.959106,1542.191528 1077.242554,1510.262085 
	C1121.591187,1432.813232 1165.941650,1355.365479 1210.258911,1277.898682 
	C1211.061401,1276.495728 1211.890259,1274.884155 1211.973022,1273.330688 
	C1212.406006,1265.213135 1212.778687,1257.084473 1212.849487,1248.956787 
	C1213.193726,1209.477051 1213.473267,1169.996460 1213.704102,1130.515869 
	C1214.070435,1067.870605 1214.383423,1005.225159 1214.710693,942.579834 
	C1214.784790,928.415771 1214.840088,914.251587 1214.875732,900.087402 
	C1214.901733,889.818420 1214.880859,879.549377 1214.880859,868.879578 
	C1217.652222,868.879578 1219.622314,868.879578 1221.592529,868.879578 
	C1295.256714,868.879578 1368.920898,868.835205 1442.584717,868.994446 
	C1446.811523,869.003601 1449.124512,867.816040 1451.219116,864.182373 
	C1485.976318,803.890808 1520.866333,743.675842 1555.721069,683.440430 
	C1594.415649,616.569031 1633.096680,549.689819 1671.798340,482.822479 
	C1711.330444,414.520203 1750.883667,346.230164 1790.421875,277.931335 
	C1835.382202,200.266098 1880.338379,122.598320 1925.289062,44.927509 
	C1929.499023,37.653130 1933.657349,30.348928 1938.282104,22.287445 
	C1570.698608,22.287445 1204.099365,22.287445 836.500000,22.286945 
z"/>
<path fill="#2B92AA" opacity="1.000000" stroke="none" 
	d="
M975.000000,927.000000 
	C975.000000,1180.559692 975.000000,1433.619385 975.000000,1686.678955 
	C974.611267,1686.810303 974.222534,1686.941528 973.833862,1687.072754 
	C971.379578,1683.036011 968.855347,1679.039795 966.483459,1674.955078 
	C957.798645,1659.998535 949.203979,1644.989624 940.500305,1630.044189 
	C931.552002,1614.678345 922.521057,1599.360596 913.517334,1584.027222 
	C901.125854,1562.924194 888.669556,1541.859009 876.345459,1520.716675 
	C863.937927,1499.431519 851.709412,1478.041992 839.306824,1456.753906 
	C828.468018,1438.149780 817.442078,1419.654663 806.598816,1401.053101 
	C796.575439,1383.857910 786.714661,1366.568115 776.726440,1349.352417 
	C768.292297,1334.815430 759.800049,1320.311890 751.291199,1305.818481 
	C746.252136,1297.235352 741.074951,1288.732788 736.105469,1280.109985 
	C735.336182,1278.775024 735.066467,1276.993408 735.042297,1275.411255 
	C734.649353,1249.646851 734.080994,1223.881836 734.045837,1198.116089 
	C733.925903,1110.290771 734.128418,1022.464844 733.966675,934.639587 
	C733.775024,830.547668 733.388855,726.455994 732.971191,622.364685 
	C732.816284,583.766541 732.332825,545.169678 732.000488,506.572266 
	C731.992126,505.596985 731.999451,504.621582 731.999451,502.999969 
	C729.606262,502.999969 727.508057,502.999939 725.409790,502.999939 
	C580.922546,502.999908 436.435303,502.975708 291.948242,503.117828 
	C287.644928,503.122070 285.828308,501.619629 283.892914,498.027832 
	C270.799103,473.727417 257.366882,449.609619 244.128708,425.386566 
	C235.040771,408.757538 226.143341,392.024445 217.063690,375.390900 
	C204.153915,351.740662 191.105499,328.166046 178.213287,304.506287 
	C170.803452,290.907745 163.585114,277.204865 156.081314,263.176453 
	C429.210724,263.176453 701.767273,263.176453 975.000000,263.176453 
	C975.000000,484.351685 975.000000,705.425842 975.000000,927.000000 
M953.633728,1032.500000 
	C953.633728,783.098450 953.633728,533.696960 953.633728,284.314056 
	C699.360168,284.314056 445.827911,284.314056 191.857315,284.314056 
	C196.366821,292.726929 200.595795,300.744232 204.940063,308.698547 
	C222.241272,340.377014 239.592590,372.028076 256.897675,403.704437 
	C270.321625,428.276489 283.780060,452.830475 297.019196,477.501923 
	C298.879913,480.969391 301.018585,481.943909 304.814209,481.941315 
	C451.964325,481.840607 599.114502,481.855835 746.264648,481.855835 
	C748.381348,481.855835 750.497986,481.855865 752.898499,481.855865 
	C753.000061,483.680634 753.127014,484.970276 753.135620,486.260712 
	C753.383179,523.242737 753.661011,560.224609 753.841919,597.206909 
	C753.965820,622.535828 753.918640,647.865601 754.006348,673.194763 
	C754.274597,750.669373 754.624817,828.143677 754.841858,905.618408 
	C755.076233,989.269043 755.170044,1072.920044 755.378113,1156.570801 
	C755.470520,1193.721924 755.693054,1230.872803 755.856567,1268.023804 
	C755.859497,1268.690308 755.732727,1269.390625 755.894226,1270.016357 
	C756.214539,1271.257446 756.506897,1272.565552 757.137390,1273.657471 
	C762.449036,1282.855347 767.843445,1292.005615 773.196350,1301.179810 
	C796.524597,1341.161133 819.874084,1381.130127 843.163147,1421.134399 
	C860.942810,1451.674927 878.616272,1482.277466 896.387024,1512.823364 
	C912.566040,1540.633179 928.796387,1568.413330 945.047363,1596.181274 
	C947.409424,1600.217163 950.012695,1604.111938 952.504333,1608.072021 
	C952.880615,1607.960205 953.256958,1607.848389 953.633240,1607.736694 
	C953.633240,1416.324463 953.633240,1224.912231 953.633728,1032.500000 
z"/>
<path fill="#020202" opacity="1.000000" stroke="none" 
	d="
M837.000000,22.287195 
	C1204.099365,22.287445 1570.698608,22.287445 1938.282104,22.287445 
	C1933.657349,30.348928 1929.499023,37.653130 1925.289062,44.927509 
	C1880.338379,122.598320 1835.382202,200.266098 1790.421875,277.931335 
	C1750.883667,346.230164 1711.330444,414.520203 1671.798340,482.822479 
	C1633.096680,549.689819 1594.415649,616.569031 1555.721069,683.440430 
	C1520.866333,743.675842 1485.976318,803.890808 1451.219116,864.182373 
	C1449.124512,867.816040 1446.811523,869.003601 1442.584717,868.994446 
	C1368.920898,868.835205 1295.256714,868.879578 1221.592529,868.879578 
	C1219.622314,868.879578 1217.652222,868.879578 1214.880859,868.879578 
	C1214.880859,879.549377 1214.901733,889.818420 1214.875732,900.087402 
	C1214.840088,914.251587 1214.784790,928.415771 1214.710693,942.579834 
	C1214.383423,1005.225159 1214.070435,1067.870605 1213.704102,1130.515869 
	C1213.473267,1169.996460 1213.193726,1209.477051 1212.849487,1248.956787 
	C1212.778687,1257.084473 1212.406006,1265.213135 1211.973022,1273.330688 
	C1211.890259,1274.884155 1211.061401,1276.495728 1210.258911,1277.898682 
	C1165.941650,1355.365479 1121.591187,1432.813232 1077.242554,1510.262085 
	C1058.959106,1542.191528 1040.673584,1574.119751 1022.380615,1606.043823 
	C1021.914673,1606.856934 1021.353882,1607.615601 1019.876892,1608.239868 
	C1020.723083,1167.101929 1021.569336,725.963928 1022.416321,284.413208 
	C1171.155762,284.413208 1319.653076,284.413208 1468.738281,284.413208 
	C1463.463867,293.797424 1458.373047,302.909363 1453.231812,311.992706 
	C1422.559570,366.184357 1391.835327,420.346710 1361.291504,474.610626 
	C1359.368530,478.027039 1357.350708,479.100464 1353.542847,479.088470 
	C1309.544678,478.949738 1265.546143,478.999939 1221.547607,478.999939 
	C1219.580566,478.999939 1217.613647,478.999939 1215.325439,478.999939 
	C1215.325439,543.004578 1215.325439,606.592041 1215.325439,671.000000 
	C1216.986572,671.000000 1218.733154,671.000000 1220.479614,671.000000 
	C1256.311768,671.000000 1292.143921,670.964844 1327.975830,671.058716 
	C1331.267212,671.067322 1333.300415,670.351746 1335.111328,667.213928 
	C1390.289062,571.601746 1445.591553,476.061462 1500.880005,380.513092 
	C1531.984253,326.759277 1563.099243,273.011566 1594.199341,219.255295 
	C1594.841431,218.145370 1595.360596,216.964386 1596.347290,214.999771 
	C1593.460815,214.999771 1591.218506,214.999756 1588.976318,214.999756 
	C1111.492554,214.999756 634.008911,214.993439 156.525238,215.102509 
	C152.358536,215.103455 149.997391,214.026337 147.857941,210.360916 
	C111.935127,148.815887 75.866501,87.355980 39.832603,25.875790 
	C39.331356,25.020569 38.860229,24.147690 37.816093,22.286945 
	C304.496521,22.286945 570.498291,22.286945 837.000000,22.287195 
z"/>
<path fill="#020202" opacity="1.000000" stroke="none" 
	d="
M953.633484,1033.000000 
	C953.633240,1224.912231 953.633240,1416.324463 953.633240,1607.736694 
	C953.256958,1607.848389 952.880615,1607.960205 952.504333,1608.072021 
	C950.012695,1604.111938 947.409424,1600.217163 945.047363,1596.181274 
	C928.796387,1568.413330 912.566040,1540.633179 896.387024,1512.823364 
	C878.616272,1482.277466 860.942810,1451.674927 843.163147,1421.134399 
	C819.874084,1381.130127 796.524597,1341.161133 773.196350,1301.179810 
	C767.843445,1292.005615 762.449036,1282.855347 757.137390,1273.657471 
	C756.506897,1272.565552 756.214539,1271.257446 755.894226,1270.016357 
	C755.732727,1269.390625 755.859497,1268.690308 755.856567,1268.023804 
	C755.693054,1230.872803 755.470520,1193.721924 755.378113,1156.570801 
	C755.170044,1072.920044 755.076233,989.269043 754.841858,905.618408 
	C754.624817,828.143677 754.274597,750.669373 754.006348,673.194763 
	C753.918640,647.865601 753.965820,622.535828 753.841919,597.206909 
	C753.661011,560.224609 753.383179,523.242737 753.135620,486.260712 
	C753.127014,484.970276 753.000061,483.680634 752.898499,481.855865 
	C750.497986,481.855865 748.381348,481.855835 746.264648,481.855835 
	C599.114502,481.855835 451.964325,481.840607 304.814209,481.941315 
	C301.018585,481.943909 298.879913,480.969391 297.019196,477.501923 
	C283.780060,452.830475 270.321625,428.276489 256.897675,403.704437 
	C239.592590,372.028076 222.241272,340.377014 204.940063,308.698547 
	C200.595795,300.744232 196.366821,292.726929 191.857315,284.314056 
	C445.827911,284.314056 699.360168,284.314056 953.633728,284.314056 
	C953.633728,533.696960 953.633728,783.098450 953.633484,1033.000000 
z"/>
</svg>